<mxfile host="app.diagrams.net" modified="2023-07-05T09:14:43.320Z" agent="Mozilla/5.0 (Windows NT 10.0; Win64; x64) AppleWebKit/537.36 (KHTML, like Gecko) Chrome/114.0.0.0 Safari/537.36" etag="GThHeH8JIloTBJbMutsz" version="21.5.2" type="device">
  <diagram name="Page-1" id="bceoRJrne69C_uw8FMNU">
    <mxGraphModel dx="1434" dy="774" grid="1" gridSize="8" guides="1" tooltips="1" connect="1" arrows="1" fold="1" page="1" pageScale="1" pageWidth="1200" pageHeight="1600" math="0" shadow="0">
      <root>
        <mxCell id="0" />
        <mxCell id="1" parent="0" />
        <mxCell id="xjdHORMt7ra_NvbuyC9i-1" value="user" style="swimlane;whiteSpace=wrap;html=1;startSize=32;" vertex="1" parent="1">
          <mxGeometry x="64" y="320" width="192" height="288" as="geometry" />
        </mxCell>
        <mxCell id="xjdHORMt7ra_NvbuyC9i-34" value="id" style="text;html=1;align=center;verticalAlign=middle;resizable=0;points=[];autosize=1;strokeColor=none;fillColor=none;" vertex="1" parent="xjdHORMt7ra_NvbuyC9i-1">
          <mxGeometry x="80" y="33" width="32" height="32" as="geometry" />
        </mxCell>
        <mxCell id="xjdHORMt7ra_NvbuyC9i-35" value="用户名 username" style="text;html=1;align=center;verticalAlign=middle;resizable=0;points=[];autosize=1;strokeColor=none;fillColor=none;" vertex="1" parent="xjdHORMt7ra_NvbuyC9i-1">
          <mxGeometry x="40" y="63" width="112" height="32" as="geometry" />
        </mxCell>
        <mxCell id="xjdHORMt7ra_NvbuyC9i-36" value="密码 password" style="text;html=1;align=center;verticalAlign=middle;resizable=0;points=[];autosize=1;strokeColor=none;fillColor=none;" vertex="1" parent="xjdHORMt7ra_NvbuyC9i-1">
          <mxGeometry x="48" y="95" width="96" height="32" as="geometry" />
        </mxCell>
        <mxCell id="xjdHORMt7ra_NvbuyC9i-37" value="昵称 nickname" style="text;html=1;align=center;verticalAlign=middle;resizable=0;points=[];autosize=1;strokeColor=none;fillColor=none;" vertex="1" parent="xjdHORMt7ra_NvbuyC9i-1">
          <mxGeometry x="48" y="127" width="96" height="32" as="geometry" />
        </mxCell>
        <mxCell id="xjdHORMt7ra_NvbuyC9i-38" value="UID user_identifier" style="text;html=1;align=center;verticalAlign=middle;resizable=0;points=[];autosize=1;strokeColor=none;fillColor=none;" vertex="1" parent="xjdHORMt7ra_NvbuyC9i-1">
          <mxGeometry x="36" y="159" width="120" height="32" as="geometry" />
        </mxCell>
        <mxCell id="xjdHORMt7ra_NvbuyC9i-39" value="精品 boutique&amp;nbsp;" style="text;html=1;align=center;verticalAlign=middle;resizable=0;points=[];autosize=1;strokeColor=none;fillColor=none;" vertex="1" parent="xjdHORMt7ra_NvbuyC9i-1">
          <mxGeometry x="48" y="191" width="96" height="32" as="geometry" />
        </mxCell>
        <mxCell id="xjdHORMt7ra_NvbuyC9i-49" value="登录时间 login_time" style="text;html=1;align=center;verticalAlign=middle;resizable=0;points=[];autosize=1;strokeColor=none;fillColor=none;" vertex="1" parent="xjdHORMt7ra_NvbuyC9i-1">
          <mxGeometry x="32" y="253" width="128" height="32" as="geometry" />
        </mxCell>
        <mxCell id="xjdHORMt7ra_NvbuyC9i-48" value="创建时间 create_time" style="text;html=1;align=center;verticalAlign=middle;resizable=0;points=[];autosize=1;strokeColor=none;fillColor=none;" vertex="1" parent="xjdHORMt7ra_NvbuyC9i-1">
          <mxGeometry x="28" y="223" width="136" height="32" as="geometry" />
        </mxCell>
        <mxCell id="xjdHORMt7ra_NvbuyC9i-91" style="edgeStyle=orthogonalEdgeStyle;rounded=0;orthogonalLoop=1;jettySize=auto;html=1;exitX=0;exitY=0.5;exitDx=0;exitDy=0;entryX=1;entryY=0.5;entryDx=0;entryDy=0;" edge="1" parent="1" source="xjdHORMt7ra_NvbuyC9i-2" target="xjdHORMt7ra_NvbuyC9i-1">
          <mxGeometry relative="1" as="geometry">
            <Array as="points">
              <mxPoint x="280" y="560" />
              <mxPoint x="280" y="464" />
            </Array>
          </mxGeometry>
        </mxCell>
        <mxCell id="xjdHORMt7ra_NvbuyC9i-98" style="edgeStyle=orthogonalEdgeStyle;rounded=0;orthogonalLoop=1;jettySize=auto;html=1;exitX=1;exitY=0.5;exitDx=0;exitDy=0;entryX=0;entryY=0.5;entryDx=0;entryDy=0;" edge="1" parent="1" source="xjdHORMt7ra_NvbuyC9i-2" target="xjdHORMt7ra_NvbuyC9i-50">
          <mxGeometry relative="1" as="geometry">
            <Array as="points">
              <mxPoint x="544" y="560" />
              <mxPoint x="576" y="560" />
              <mxPoint x="576" y="416" />
              <mxPoint x="632" y="416" />
            </Array>
          </mxGeometry>
        </mxCell>
        <mxCell id="xjdHORMt7ra_NvbuyC9i-100" style="edgeStyle=orthogonalEdgeStyle;rounded=0;orthogonalLoop=1;jettySize=auto;html=1;exitX=1;exitY=0.75;exitDx=0;exitDy=0;entryX=0;entryY=0.5;entryDx=0;entryDy=0;" edge="1" parent="1" source="xjdHORMt7ra_NvbuyC9i-2" target="xjdHORMt7ra_NvbuyC9i-40">
          <mxGeometry relative="1" as="geometry">
            <Array as="points">
              <mxPoint x="544" y="680" />
              <mxPoint x="576" y="680" />
              <mxPoint x="576" y="704" />
            </Array>
          </mxGeometry>
        </mxCell>
        <mxCell id="xjdHORMt7ra_NvbuyC9i-2" value="article" style="swimlane;whiteSpace=wrap;html=1;startSize=32;" vertex="1" parent="1">
          <mxGeometry x="352" y="320" width="192" height="448" as="geometry">
            <mxRectangle x="360" y="320" width="80" height="30" as="alternateBounds" />
          </mxGeometry>
        </mxCell>
        <mxCell id="xjdHORMt7ra_NvbuyC9i-7" value="id" style="text;html=1;align=center;verticalAlign=middle;resizable=0;points=[];autosize=1;strokeColor=none;fillColor=none;" vertex="1" parent="xjdHORMt7ra_NvbuyC9i-2">
          <mxGeometry x="85" y="33" width="30" height="30" as="geometry" />
        </mxCell>
        <mxCell id="xjdHORMt7ra_NvbuyC9i-8" value="作者ID author_id" style="text;html=1;align=center;verticalAlign=middle;resizable=0;points=[];autosize=1;strokeColor=none;fillColor=none;" vertex="1" parent="xjdHORMt7ra_NvbuyC9i-2">
          <mxGeometry x="44" y="64" width="112" height="32" as="geometry" />
        </mxCell>
        <mxCell id="xjdHORMt7ra_NvbuyC9i-11" value="标题 title" style="text;html=1;align=center;verticalAlign=middle;resizable=0;points=[];autosize=1;strokeColor=none;fillColor=none;" vertex="1" parent="xjdHORMt7ra_NvbuyC9i-2">
          <mxGeometry x="68" y="96" width="64" height="32" as="geometry" />
        </mxCell>
        <mxCell id="xjdHORMt7ra_NvbuyC9i-22" value="摘要 summary" style="text;html=1;align=center;verticalAlign=middle;resizable=0;points=[];autosize=1;strokeColor=none;fillColor=none;" vertex="1" parent="xjdHORMt7ra_NvbuyC9i-2">
          <mxGeometry x="52" y="128" width="96" height="32" as="geometry" />
        </mxCell>
        <mxCell id="xjdHORMt7ra_NvbuyC9i-29" value="点赞数 poll_count" style="text;html=1;align=center;verticalAlign=middle;resizable=0;points=[];autosize=1;strokeColor=none;fillColor=none;fontSize=12;labelBackgroundColor=#FFFFFF;labelPosition=center;verticalLabelPosition=middle;textDirection=ltr;" vertex="1" parent="xjdHORMt7ra_NvbuyC9i-2">
          <mxGeometry x="44" y="160" width="112" height="32" as="geometry" />
        </mxCell>
        <mxCell id="xjdHORMt7ra_NvbuyC9i-30" value="评论数 comment_count" style="text;html=1;align=center;verticalAlign=middle;resizable=0;points=[];autosize=1;strokeColor=none;fillColor=none;" vertex="1" parent="xjdHORMt7ra_NvbuyC9i-2">
          <mxGeometry x="28" y="192" width="144" height="32" as="geometry" />
        </mxCell>
        <mxCell id="xjdHORMt7ra_NvbuyC9i-31" value="阅读数 read_count" style="text;html=1;align=center;verticalAlign=middle;resizable=0;points=[];autosize=1;strokeColor=none;fillColor=none;" vertex="1" parent="xjdHORMt7ra_NvbuyC9i-2">
          <mxGeometry x="40" y="224" width="120" height="32" as="geometry" />
        </mxCell>
        <mxCell id="xjdHORMt7ra_NvbuyC9i-32" value="文章类别 article_classification" style="text;html=1;align=center;verticalAlign=middle;resizable=0;points=[];autosize=1;strokeColor=none;fillColor=none;" vertex="1" parent="xjdHORMt7ra_NvbuyC9i-2">
          <mxGeometry x="12" y="256" width="176" height="32" as="geometry" />
        </mxCell>
        <mxCell id="xjdHORMt7ra_NvbuyC9i-33" value="精华 essence" style="text;html=1;align=center;verticalAlign=middle;resizable=0;points=[];autosize=1;strokeColor=none;fillColor=none;" vertex="1" parent="xjdHORMt7ra_NvbuyC9i-2">
          <mxGeometry x="52" y="288" width="96" height="32" as="geometry" />
        </mxCell>
        <mxCell id="xjdHORMt7ra_NvbuyC9i-15" value="创建时间 create_time" style="text;html=1;align=center;verticalAlign=middle;resizable=0;points=[];autosize=1;strokeColor=none;fillColor=none;" vertex="1" parent="xjdHORMt7ra_NvbuyC9i-2">
          <mxGeometry x="32" y="352" width="136" height="32" as="geometry" />
        </mxCell>
        <mxCell id="xjdHORMt7ra_NvbuyC9i-18" value="更新时间 update_time" style="text;html=1;align=center;verticalAlign=middle;resizable=0;points=[];autosize=1;strokeColor=none;fillColor=none;" vertex="1" parent="xjdHORMt7ra_NvbuyC9i-2">
          <mxGeometry x="32" y="382" width="136" height="32" as="geometry" />
        </mxCell>
        <mxCell id="xjdHORMt7ra_NvbuyC9i-47" value="AID article_identifier" style="text;html=1;align=center;verticalAlign=middle;resizable=0;points=[];autosize=1;strokeColor=none;fillColor=none;" vertex="1" parent="xjdHORMt7ra_NvbuyC9i-2">
          <mxGeometry x="32" y="320" width="128" height="32" as="geometry" />
        </mxCell>
        <mxCell id="xjdHORMt7ra_NvbuyC9i-6" value="article_detail" style="swimlane;whiteSpace=wrap;html=1;startSize=32;" vertex="1" parent="1">
          <mxGeometry x="352" y="32" width="192" height="192" as="geometry" />
        </mxCell>
        <mxCell id="xjdHORMt7ra_NvbuyC9i-26" value="文章内容 content" style="text;html=1;align=center;verticalAlign=middle;resizable=0;points=[];autosize=1;strokeColor=none;fillColor=none;" vertex="1" parent="xjdHORMt7ra_NvbuyC9i-6">
          <mxGeometry x="44" y="96" width="112" height="32" as="geometry" />
        </mxCell>
        <mxCell id="xjdHORMt7ra_NvbuyC9i-27" value="id" style="text;html=1;align=center;verticalAlign=middle;resizable=0;points=[];autosize=1;strokeColor=none;fillColor=none;" vertex="1" parent="xjdHORMt7ra_NvbuyC9i-6">
          <mxGeometry x="84" y="32" width="32" height="32" as="geometry" />
        </mxCell>
        <mxCell id="xjdHORMt7ra_NvbuyC9i-28" value="文章ID article_id" style="text;html=1;align=center;verticalAlign=middle;resizable=0;points=[];autosize=1;strokeColor=none;fillColor=none;" vertex="1" parent="xjdHORMt7ra_NvbuyC9i-6">
          <mxGeometry x="48" y="64" width="104" height="32" as="geometry" />
        </mxCell>
        <mxCell id="xjdHORMt7ra_NvbuyC9i-40" value="tags" style="swimlane;whiteSpace=wrap;html=1;startSize=32;" vertex="1" parent="1">
          <mxGeometry x="640" y="608" width="192" height="192" as="geometry" />
        </mxCell>
        <mxCell id="xjdHORMt7ra_NvbuyC9i-41" value="id" style="text;html=1;align=center;verticalAlign=middle;resizable=0;points=[];autosize=1;strokeColor=none;fillColor=none;" vertex="1" parent="xjdHORMt7ra_NvbuyC9i-40">
          <mxGeometry x="80" y="32" width="32" height="32" as="geometry" />
        </mxCell>
        <mxCell id="xjdHORMt7ra_NvbuyC9i-42" value="标签名 name" style="text;html=1;align=center;verticalAlign=middle;resizable=0;points=[];autosize=1;strokeColor=none;fillColor=none;" vertex="1" parent="xjdHORMt7ra_NvbuyC9i-40">
          <mxGeometry x="52" y="64" width="88" height="32" as="geometry" />
        </mxCell>
        <mxCell id="xjdHORMt7ra_NvbuyC9i-102" value="文章ID article_id" style="text;html=1;align=center;verticalAlign=middle;resizable=0;points=[];autosize=1;strokeColor=none;fillColor=none;" vertex="1" parent="xjdHORMt7ra_NvbuyC9i-40">
          <mxGeometry x="44" y="96" width="104" height="32" as="geometry" />
        </mxCell>
        <mxCell id="xjdHORMt7ra_NvbuyC9i-50" value="classifications" style="swimlane;whiteSpace=wrap;html=1;startSize=32;" vertex="1" parent="1">
          <mxGeometry x="640" y="320" width="192" height="192" as="geometry" />
        </mxCell>
        <mxCell id="xjdHORMt7ra_NvbuyC9i-51" value="id" style="text;html=1;align=center;verticalAlign=middle;resizable=0;points=[];autosize=1;strokeColor=none;fillColor=none;" vertex="1" parent="xjdHORMt7ra_NvbuyC9i-50">
          <mxGeometry x="80" y="32" width="32" height="32" as="geometry" />
        </mxCell>
        <mxCell id="xjdHORMt7ra_NvbuyC9i-52" value="分类名 name" style="text;html=1;align=center;verticalAlign=middle;resizable=0;points=[];autosize=1;strokeColor=none;fillColor=none;" vertex="1" parent="xjdHORMt7ra_NvbuyC9i-50">
          <mxGeometry x="52" y="64" width="88" height="32" as="geometry" />
        </mxCell>
        <mxCell id="xjdHORMt7ra_NvbuyC9i-56" value="blog" style="swimlane;whiteSpace=wrap;html=1;startSize=32;" vertex="1" parent="1">
          <mxGeometry x="64" y="32" width="192" height="192" as="geometry" />
        </mxCell>
        <mxCell id="xjdHORMt7ra_NvbuyC9i-57" value="id" style="text;html=1;align=center;verticalAlign=middle;resizable=0;points=[];autosize=1;strokeColor=none;fillColor=none;" vertex="1" parent="xjdHORMt7ra_NvbuyC9i-56">
          <mxGeometry x="80" y="32" width="32" height="32" as="geometry" />
        </mxCell>
        <mxCell id="xjdHORMt7ra_NvbuyC9i-58" value="用户ID user_id" style="text;html=1;align=center;verticalAlign=middle;resizable=0;points=[];autosize=1;strokeColor=none;fillColor=none;" vertex="1" parent="xjdHORMt7ra_NvbuyC9i-56">
          <mxGeometry x="48" y="64" width="96" height="32" as="geometry" />
        </mxCell>
        <mxCell id="xjdHORMt7ra_NvbuyC9i-59" value="地址 url" style="text;html=1;align=center;verticalAlign=middle;resizable=0;points=[];autosize=1;strokeColor=none;fillColor=none;" vertex="1" parent="xjdHORMt7ra_NvbuyC9i-56">
          <mxGeometry x="64" y="96" width="64" height="32" as="geometry" />
        </mxCell>
        <mxCell id="xjdHORMt7ra_NvbuyC9i-60" value="短地址 shortcut_url" style="text;html=1;align=center;verticalAlign=middle;resizable=0;points=[];autosize=1;strokeColor=none;fillColor=none;" vertex="1" parent="xjdHORMt7ra_NvbuyC9i-56">
          <mxGeometry x="36" y="128" width="120" height="32" as="geometry" />
        </mxCell>
        <mxCell id="xjdHORMt7ra_NvbuyC9i-62" value="comment" style="swimlane;whiteSpace=wrap;html=1;startSize=32;" vertex="1" parent="1">
          <mxGeometry x="64" y="704" width="192" height="192" as="geometry" />
        </mxCell>
        <mxCell id="xjdHORMt7ra_NvbuyC9i-63" value="id" style="text;html=1;align=center;verticalAlign=middle;resizable=0;points=[];autosize=1;strokeColor=none;fillColor=none;" vertex="1" parent="xjdHORMt7ra_NvbuyC9i-62">
          <mxGeometry x="80" y="32" width="32" height="32" as="geometry" />
        </mxCell>
        <mxCell id="xjdHORMt7ra_NvbuyC9i-64" value="内容 content" style="text;html=1;align=center;verticalAlign=middle;resizable=0;points=[];autosize=1;strokeColor=none;fillColor=none;" vertex="1" parent="xjdHORMt7ra_NvbuyC9i-62">
          <mxGeometry x="52" y="64" width="88" height="32" as="geometry" />
        </mxCell>
        <mxCell id="xjdHORMt7ra_NvbuyC9i-65" value="用户 user_id" style="text;html=1;align=center;verticalAlign=middle;resizable=0;points=[];autosize=1;strokeColor=none;fillColor=none;" vertex="1" parent="xjdHORMt7ra_NvbuyC9i-62">
          <mxGeometry x="52" y="96" width="88" height="32" as="geometry" />
        </mxCell>
        <mxCell id="xjdHORMt7ra_NvbuyC9i-66" value="文章 article_id" style="text;html=1;align=center;verticalAlign=middle;resizable=0;points=[];autosize=1;strokeColor=none;fillColor=none;" vertex="1" parent="xjdHORMt7ra_NvbuyC9i-62">
          <mxGeometry x="48" y="128" width="96" height="32" as="geometry" />
        </mxCell>
        <mxCell id="xjdHORMt7ra_NvbuyC9i-90" style="edgeStyle=orthogonalEdgeStyle;rounded=0;orthogonalLoop=1;jettySize=auto;html=1;exitX=0.5;exitY=0;exitDx=0;exitDy=0;entryX=0.5;entryY=1;entryDx=0;entryDy=0;" edge="1" parent="1" source="xjdHORMt7ra_NvbuyC9i-67" target="xjdHORMt7ra_NvbuyC9i-62">
          <mxGeometry relative="1" as="geometry" />
        </mxCell>
        <mxCell id="xjdHORMt7ra_NvbuyC9i-67" value="comment poll" style="swimlane;whiteSpace=wrap;html=1;startSize=32;" vertex="1" parent="1">
          <mxGeometry x="352" y="864" width="192" height="192" as="geometry" />
        </mxCell>
        <mxCell id="xjdHORMt7ra_NvbuyC9i-68" value="id" style="text;html=1;align=center;verticalAlign=middle;resizable=0;points=[];autosize=1;strokeColor=none;fillColor=none;" vertex="1" parent="xjdHORMt7ra_NvbuyC9i-67">
          <mxGeometry x="80" y="32" width="32" height="32" as="geometry" />
        </mxCell>
        <mxCell id="xjdHORMt7ra_NvbuyC9i-69" value="评论 comment_id" style="text;html=1;align=center;verticalAlign=middle;resizable=0;points=[];autosize=1;strokeColor=none;fillColor=none;" vertex="1" parent="xjdHORMt7ra_NvbuyC9i-67">
          <mxGeometry x="40" y="64" width="112" height="32" as="geometry" />
        </mxCell>
        <mxCell id="xjdHORMt7ra_NvbuyC9i-70" value="用户 user_id" style="text;html=1;align=center;verticalAlign=middle;resizable=0;points=[];autosize=1;strokeColor=none;fillColor=none;" vertex="1" parent="xjdHORMt7ra_NvbuyC9i-67">
          <mxGeometry x="52" y="96" width="88" height="32" as="geometry" />
        </mxCell>
        <mxCell id="xjdHORMt7ra_NvbuyC9i-71" value="是否点赞 is_poll" style="text;html=1;align=center;verticalAlign=middle;resizable=0;points=[];autosize=1;strokeColor=none;fillColor=none;" vertex="1" parent="xjdHORMt7ra_NvbuyC9i-67">
          <mxGeometry x="44" y="128" width="104" height="32" as="geometry" />
        </mxCell>
        <mxCell id="xjdHORMt7ra_NvbuyC9i-78" value="多对一" style="text;html=1;align=center;verticalAlign=middle;resizable=0;points=[];autosize=1;strokeColor=none;fillColor=none;" vertex="1" parent="1">
          <mxGeometry x="224" y="920" width="56" height="32" as="geometry" />
        </mxCell>
        <mxCell id="xjdHORMt7ra_NvbuyC9i-87" value="" style="endArrow=classic;startArrow=classic;html=1;rounded=0;exitX=1;exitY=0.5;exitDx=0;exitDy=0;entryX=0;entryY=0.75;entryDx=0;entryDy=0;" edge="1" parent="1" source="xjdHORMt7ra_NvbuyC9i-62" target="xjdHORMt7ra_NvbuyC9i-2">
          <mxGeometry width="50" height="50" relative="1" as="geometry">
            <mxPoint x="320" y="858" as="sourcePoint" />
            <mxPoint x="370" y="808" as="targetPoint" />
            <Array as="points">
              <mxPoint x="288" y="800" />
              <mxPoint x="288" y="656" />
            </Array>
          </mxGeometry>
        </mxCell>
        <mxCell id="xjdHORMt7ra_NvbuyC9i-88" value="多对多" style="text;html=1;align=center;verticalAlign=middle;resizable=0;points=[];autosize=1;strokeColor=none;fillColor=none;" vertex="1" parent="1">
          <mxGeometry x="288" y="720" width="56" height="32" as="geometry" />
        </mxCell>
        <mxCell id="xjdHORMt7ra_NvbuyC9i-92" value="多对一" style="text;html=1;align=center;verticalAlign=middle;resizable=0;points=[];autosize=1;strokeColor=none;fillColor=none;" vertex="1" parent="1">
          <mxGeometry x="280" y="493" width="56" height="32" as="geometry" />
        </mxCell>
        <mxCell id="xjdHORMt7ra_NvbuyC9i-93" value="一对一" style="text;html=1;align=center;verticalAlign=middle;resizable=0;points=[];autosize=1;strokeColor=none;fillColor=none;" vertex="1" parent="1">
          <mxGeometry x="160" y="256" width="56" height="32" as="geometry" />
        </mxCell>
        <mxCell id="xjdHORMt7ra_NvbuyC9i-95" value="" style="endArrow=none;html=1;rounded=0;entryX=0.5;entryY=1;entryDx=0;entryDy=0;exitX=0.5;exitY=0;exitDx=0;exitDy=0;" edge="1" parent="1" source="xjdHORMt7ra_NvbuyC9i-1" target="xjdHORMt7ra_NvbuyC9i-56">
          <mxGeometry width="50" height="50" relative="1" as="geometry">
            <mxPoint x="80" y="306" as="sourcePoint" />
            <mxPoint x="130" y="256" as="targetPoint" />
          </mxGeometry>
        </mxCell>
        <mxCell id="xjdHORMt7ra_NvbuyC9i-96" value="一对一" style="text;html=1;align=center;verticalAlign=middle;resizable=0;points=[];autosize=1;strokeColor=none;fillColor=none;" vertex="1" parent="1">
          <mxGeometry x="448" y="256" width="56" height="32" as="geometry" />
        </mxCell>
        <mxCell id="xjdHORMt7ra_NvbuyC9i-97" value="" style="endArrow=none;html=1;rounded=0;entryX=0.5;entryY=1;entryDx=0;entryDy=0;exitX=0.5;exitY=0;exitDx=0;exitDy=0;" edge="1" parent="1">
          <mxGeometry width="50" height="50" relative="1" as="geometry">
            <mxPoint x="448" y="320" as="sourcePoint" />
            <mxPoint x="448" y="224" as="targetPoint" />
          </mxGeometry>
        </mxCell>
        <mxCell id="xjdHORMt7ra_NvbuyC9i-99" value="多对一" style="text;html=1;align=center;verticalAlign=middle;resizable=0;points=[];autosize=1;strokeColor=none;fillColor=none;" vertex="1" parent="1">
          <mxGeometry x="576" y="440" width="56" height="32" as="geometry" />
        </mxCell>
        <mxCell id="xjdHORMt7ra_NvbuyC9i-103" value="identifer" style="swimlane;whiteSpace=wrap;html=1;startSize=32;" vertex="1" parent="1">
          <mxGeometry x="640" y="32" width="192" height="192" as="geometry" />
        </mxCell>
        <mxCell id="xjdHORMt7ra_NvbuyC9i-104" value="id" style="text;html=1;align=center;verticalAlign=middle;resizable=0;points=[];autosize=1;strokeColor=none;fillColor=none;" vertex="1" parent="xjdHORMt7ra_NvbuyC9i-103">
          <mxGeometry x="80" y="32" width="32" height="32" as="geometry" />
        </mxCell>
        <mxCell id="xjdHORMt7ra_NvbuyC9i-105" value="类型表 name" style="text;html=1;align=center;verticalAlign=middle;resizable=0;points=[];autosize=1;strokeColor=none;fillColor=none;" vertex="1" parent="xjdHORMt7ra_NvbuyC9i-103">
          <mxGeometry x="52" y="64" width="88" height="32" as="geometry" />
        </mxCell>
        <mxCell id="xjdHORMt7ra_NvbuyC9i-106" value="标识符 identifier" style="text;html=1;align=center;verticalAlign=middle;resizable=0;points=[];autosize=1;strokeColor=none;fillColor=none;" vertex="1" parent="xjdHORMt7ra_NvbuyC9i-103">
          <mxGeometry x="44" y="96" width="104" height="32" as="geometry" />
        </mxCell>
        <mxCell id="xjdHORMt7ra_NvbuyC9i-101" value="多对多" style="text;html=1;align=center;verticalAlign=middle;resizable=0;points=[];autosize=1;strokeColor=none;fillColor=none;" vertex="1" parent="1">
          <mxGeometry x="576" y="672" width="56" height="32" as="geometry" />
        </mxCell>
        <mxCell id="xjdHORMt7ra_NvbuyC9i-107" value="authority" style="swimlane;whiteSpace=wrap;html=1;startSize=32;" vertex="1" parent="1">
          <mxGeometry x="928" y="32" width="192" height="192" as="geometry" />
        </mxCell>
        <mxCell id="xjdHORMt7ra_NvbuyC9i-108" value="id" style="text;html=1;align=center;verticalAlign=middle;resizable=0;points=[];autosize=1;strokeColor=none;fillColor=none;" vertex="1" parent="xjdHORMt7ra_NvbuyC9i-107">
          <mxGeometry x="80" y="32" width="32" height="32" as="geometry" />
        </mxCell>
        <mxCell id="xjdHORMt7ra_NvbuyC9i-109" value="权限类型 name" style="text;html=1;align=center;verticalAlign=middle;resizable=0;points=[];autosize=1;strokeColor=none;fillColor=none;" vertex="1" parent="xjdHORMt7ra_NvbuyC9i-107">
          <mxGeometry x="44" y="64" width="104" height="32" as="geometry" />
        </mxCell>
        <mxCell id="xjdHORMt7ra_NvbuyC9i-111" value="log" style="swimlane;whiteSpace=wrap;html=1;startSize=32;" vertex="1" parent="1">
          <mxGeometry x="928" y="320" width="192" height="192" as="geometry" />
        </mxCell>
        <mxCell id="xjdHORMt7ra_NvbuyC9i-112" value="id" style="text;html=1;align=center;verticalAlign=middle;resizable=0;points=[];autosize=1;strokeColor=none;fillColor=none;" vertex="1" parent="xjdHORMt7ra_NvbuyC9i-111">
          <mxGeometry x="80" y="32" width="32" height="32" as="geometry" />
        </mxCell>
        <mxCell id="xjdHORMt7ra_NvbuyC9i-113" value="log内容 content" style="text;html=1;align=center;verticalAlign=middle;resizable=0;points=[];autosize=1;strokeColor=none;fillColor=none;" vertex="1" parent="xjdHORMt7ra_NvbuyC9i-111">
          <mxGeometry x="44" y="64" width="104" height="32" as="geometry" />
        </mxCell>
      </root>
    </mxGraphModel>
  </diagram>
</mxfile>
